<svg width="418" height="131" viewBox="0 0 418 131" fill="none" xmlns="http://www.w3.org/2000/svg">
<path d="M265.294 66.9828C265.487 67.2917 265.722 68.6138 265.123 71.431C264.934 72.0489 264.704 73.581 265.294 74.7672L265.123 81.4397C264.868 81.9957 264.436 83.3302 264.741 84.2198L264 87.5C264.614 87.8089 265.515 86.7034 267.136 87C267.443 86.6911 267.872 85.925 267.136 85.3319L266.767 84.2198C267.013 83.8491 267.43 82.8483 267.136 81.8103C267.934 79.3391 269.383 72.3207 268.793 64.0172C270.021 60.4957 272.072 51.4879 270.451 43.6293C269.898 42.7644 269.125 40.219 270.451 36.9569C270.451 36.4627 270.893 34.7328 272.661 31.7673L273.029 29.5431C273.214 29.2342 273.582 28.4311 273.582 27.6897C274.687 26.2069 277.523 21.9069 280.028 16.569L282.054 14.3449C282.975 13.171 285.185 10.1561 286.659 7.4871L287.395 6.74572C287.887 6.74572 288.979 6.67158 289.421 6.37503C289.974 6.4986 291.19 6.67158 291.632 6.37503C291.939 6.18969 292 5.74486 289.79 5.44831C289.667 5.07762 289.642 4.33624 290.527 4.33624C291.018 4.08911 292 3.44658 292 2.85348C292 2.7917 291.705 2.77934 290.527 3.22417C290.895 2.66813 291.632 1.18534 291.079 1.55603C290.691 1.81613 289.913 2.60632 289.606 3.22414C289.79 2.54454 290.048 1 289.606 1C289.299 1.86494 288.648 3.59483 288.501 3.59483C288.439 3.28592 288.28 2.70517 288.132 2.85345C287.985 3.00172 287.825 3.65661 287.764 3.96552C287.273 4.15086 285.369 5.26293 285.001 5.81896C284.02 7.30172 277.801 14.5351 277.081 15.4569C276.16 16.3218 274.319 18.4224 274.319 19.9052L269.162 24.5388C268.977 24.7241 268.425 24.65 267.688 22.8707C267.934 22.6236 268.351 21.9069 268.057 21.0172C268.425 20.6465 269.088 19.4233 268.793 17.4957C269.284 16.6925 269.714 14.7526 267.504 13.4181C267.32 13.2328 266.841 12.8991 266.399 13.0474C265.846 12.5532 264.226 11.8612 262.163 13.0474C261.61 14.4684 260.8 17.8664 261.979 20.0905C262.286 21.3879 263.305 23.6862 264.925 22.5M263.82 22.8707C263.882 23.6738 263.857 25.206 263.268 24.9095C262.531 24.5388 261.058 22.1293 259.4 21.944L257.374 18.4224C257.374 17.681 256.785 15.6422 254.427 13.4181C254.059 12.9856 253.248 11.8612 252.954 10.8233H252.585C252.34 10.3908 251.407 9.78534 249.638 10.8233C249.516 10.8233 249.196 10.675 248.902 10.0819C248.533 9.34051 248.533 11.5647 249.086 11.75C248.656 12.3678 247.686 13.6035 247.244 13.6035C246.802 13.6035 247.06 13.9742 247.244 14.1595C247.735 14.0977 248.865 13.7518 249.454 12.8621C250.068 12.615 251.333 12.269 251.48 12.8621C251.664 13.6035 253.322 19.3492 254.98 21.2026C256.306 22.6854 258.111 26.1451 258.847 27.6897C259.707 32.4469 260.91 42.4431 258.847 44.3707C257.804 43.6293 255.09 42.5173 252.585 44C252.094 44.3089 251.701 46.2242 254.059 51.4138C255.225 53.0201 257.89 56.9371 259.216 59.7543C259.093 60.0632 259.105 60.9405 260.137 61.9785C260.628 63.0287 261.537 65.1293 261.242 65.1293C260.873 65.1293 262.715 66.7974 264.373 67.1681L265.478 66.7974C265.724 66.6121 266.067 66.0931 265.478 65.5C265.378 65.399 265.257 65.2738 265.123 65.1293C264.273 64.2133 262.899 62.5178 262.899 61.2371C263.391 60.2486 263.747 58.3086 261.242 58.4569L260.689 57.7155C260.628 56.7888 260.174 54.5276 258.847 52.8966V51.4138C259.707 52.0934 262.015 53.0448 264.373 51.4138C264.677 56.0053 265.254 65.1469 265.123 64.9807" stroke="white"/>
<path d="M2.75 88V87H1.75V88H2.75ZM27 89.2L27.4399 88.3019L27 89.2ZM30.75 92.55L29.8942 93.0674L29.8997 93.0764L30.75 92.55ZM30.85 101.6L31.6955 102.134L31.7017 102.124L30.85 101.6ZM27.35 104.7L26.8874 103.813L24.981 104.808L26.9701 105.625L27.35 104.7ZM31.6 108L30.7709 108.559L31.6 108ZM29.75 120.2L29.103 119.437L29.0973 119.442L29.75 120.2ZM2.75 123H1.75V124H2.75V123ZM14.35 108.9V107.9H13.35V108.9H14.35ZM14.35 115.1H13.35V116.1H14.35V115.1ZM14.35 95.9V94.9H13.35V95.9H14.35ZM14.35 101.7H13.35V102.7H14.35V101.7ZM2.75 89H21.2V87H2.75V89ZM21.2 89C23.315 89 25.0914 89.3787 26.5601 90.0981L27.4399 88.3019C25.642 87.4213 23.5517 87 21.2 87V89ZM26.5601 90.0981C28.0366 90.8212 29.1354 91.8123 29.8943 93.0674L31.6057 92.0326C30.6313 90.421 29.2301 89.1788 27.4399 88.3019L26.5601 90.0981ZM29.8997 93.0764C30.6613 94.3066 31.05 95.7052 31.05 97.3H33.05C33.05 95.3615 32.572 93.5934 31.6003 92.0236L29.8997 93.0764ZM31.05 97.3C31.05 98.6867 30.6987 99.9378 29.9983 101.076L31.7017 102.124C32.6013 100.662 33.05 99.0466 33.05 97.3H31.05ZM30.0045 101.066C29.3125 102.162 28.2887 103.082 26.8874 103.813L27.8126 105.587C29.4779 104.718 30.7875 103.572 31.6955 102.134L30.0045 101.066ZM26.9701 105.625C28.6855 106.33 29.9321 107.315 30.7709 108.559L32.4291 107.441C31.3346 105.818 29.7479 104.604 27.7299 103.775L26.9701 105.625ZM30.7709 108.559C31.6259 109.827 32.05 111.215 32.05 112.75H34.05C34.05 110.818 33.5075 109.04 32.4291 107.441L30.7709 108.559ZM32.05 112.75C32.05 115.581 31.0608 117.776 29.103 119.437L30.397 120.963C32.8392 118.89 34.05 116.119 34.05 112.75H32.05ZM29.0973 119.442C27.1782 121.096 24.2984 122 20.3 122V124C24.5682 124 27.9884 123.038 30.4027 120.958L29.0973 119.442ZM20.3 122H2.75V124H20.3V122ZM3.75 123V88H1.75V123H3.75ZM17.4 116.1C18.7067 116.1 19.8735 115.818 20.7203 115.078C21.5929 114.316 21.95 113.225 21.95 112H19.95C19.95 112.841 19.7154 113.3 19.4047 113.572C19.0682 113.866 18.46 114.1 17.4 114.1V116.1ZM21.95 112C21.95 110.775 21.5929 109.684 20.7203 108.922C19.8735 108.182 18.7067 107.9 17.4 107.9V109.9C18.46 109.9 19.0682 110.134 19.4047 110.428C19.7154 110.7 19.95 111.159 19.95 112H21.95ZM17.4 107.9H14.35V109.9H17.4V107.9ZM13.35 108.9V115.1H15.35V108.9H13.35ZM14.35 116.1H17.4V114.1H14.35V116.1ZM16.5 102.7C17.7659 102.7 18.9016 102.438 19.731 101.74C20.5936 101.015 20.95 99.9708 20.95 98.8H18.95C18.95 99.5626 18.7314 99.9679 18.444 100.21C18.1234 100.479 17.5341 100.7 16.5 100.7V102.7ZM20.95 98.8C20.95 97.6292 20.5936 96.5846 19.731 95.8595C18.9016 95.1624 17.7659 94.9 16.5 94.9V96.9C17.5341 96.9 18.1234 97.1209 18.444 97.3905C18.7314 97.6321 18.95 98.0374 18.95 98.8H20.95ZM16.5 94.9H14.35V96.9H16.5V94.9ZM13.35 95.9V101.7H15.35V95.9H13.35ZM14.35 102.7H16.5V100.7H14.35V102.7ZM45.4703 121.65L45.0074 122.536L45.0114 122.538L45.4703 121.65ZM38.5203 95.9L37.6565 95.3961L38.5203 95.9ZM45.4703 89.35L45.0114 88.4615L45.0074 88.4636L45.4703 89.35ZM66.6203 89.35L66.1574 90.2364L66.1614 90.2385L66.6203 89.35ZM73.6203 95.9L72.7565 96.4039L73.6203 95.9ZM73.6203 115.1L72.7565 114.596L72.7565 114.596L73.6203 115.1ZM66.6203 121.65L66.1614 120.761L66.1574 120.764L66.6203 121.65ZM50.4203 111.1L49.7132 111.807L50.4203 111.1ZM61.7203 111.1L62.4274 111.807L61.7203 111.1ZM61.7203 99.9L62.4274 99.1929L61.7203 99.9ZM50.4203 99.9L49.7132 99.1929L50.4203 99.9ZM56.0703 123C52.1678 123 48.7971 122.243 45.9292 120.762L45.0114 122.538C48.2102 124.191 51.9062 125 56.0703 125V123ZM45.9332 120.764C43.0925 119.28 40.9182 117.226 39.3841 114.596L37.6565 115.604C39.3891 118.574 41.8481 120.887 45.0074 122.536L45.9332 120.764ZM39.3841 114.596C37.8496 111.966 37.0703 108.943 37.0703 105.5H35.0703C35.0703 109.257 35.9244 112.634 37.6565 115.604L39.3841 114.596ZM37.0703 105.5C37.0703 102.057 37.8496 99.0345 39.3841 96.4039L37.6565 95.3961C35.9244 98.3655 35.0703 101.743 35.0703 105.5H37.0703ZM39.3841 96.4039C40.9182 93.774 43.0925 91.7199 45.9332 90.2364L45.0074 88.4636C41.8481 90.1134 39.3891 92.426 37.6565 95.3961L39.3841 96.4039ZM45.9292 90.2385C48.7971 88.7573 52.1678 88 56.0703 88V86C51.9062 86 48.2102 86.8094 45.0114 88.4615L45.9292 90.2385ZM56.0703 88C59.9732 88 63.3253 88.7574 66.1574 90.2364L67.0832 88.4636C63.9154 86.8093 60.2341 86 56.0703 86V88ZM66.1614 90.2385C69.0354 91.7229 71.2241 93.7768 72.7565 96.4039L74.4841 95.3961C72.7499 92.4232 70.2719 90.1105 67.0792 88.4615L66.1614 90.2385ZM72.7565 96.4039C74.2911 99.0345 75.0703 102.057 75.0703 105.5H77.0703C77.0703 101.743 76.2162 98.3655 74.4841 95.3961L72.7565 96.4039ZM75.0703 105.5C75.0703 108.943 74.2911 111.966 72.7565 114.596L74.4841 115.604C76.2162 112.634 77.0703 109.257 77.0703 105.5H75.0703ZM72.7565 114.596C71.2241 117.223 69.0354 119.277 66.1614 120.762L67.0792 122.538C70.2719 120.89 72.7499 118.577 74.4841 115.604L72.7565 114.596ZM66.1574 120.764C63.3253 122.243 59.9732 123 56.0703 123V125C60.2341 125 63.9154 124.191 67.0832 122.536L66.1574 120.764ZM47.2703 105.5C47.2703 108.026 48.0665 110.16 49.7132 111.807L51.1274 110.393C49.9074 109.173 49.2703 107.574 49.2703 105.5H47.2703ZM49.7132 111.807C51.3627 113.457 53.5152 114.25 56.0703 114.25V112.25C53.9587 112.25 52.3446 111.61 51.1274 110.393L49.7132 111.807ZM56.0703 114.25C58.6254 114.25 60.7779 113.457 62.4274 111.807L61.0132 110.393C59.796 111.61 58.1819 112.25 56.0703 112.25V114.25ZM62.4274 111.807C64.0741 110.16 64.8703 108.026 64.8703 105.5H62.8703C62.8703 107.574 62.2332 109.173 61.0132 110.393L62.4274 111.807ZM64.8703 105.5C64.8703 102.974 64.0741 100.84 62.4274 99.1929L61.0132 100.607C62.2332 101.827 62.8703 103.426 62.8703 105.5H64.8703ZM62.4274 99.1929C60.7779 97.5434 58.6254 96.75 56.0703 96.75V98.75C58.1819 98.75 59.796 99.3899 61.0132 100.607L62.4274 99.1929ZM56.0703 96.75C53.5152 96.75 51.3627 97.5434 49.7132 99.1929L51.1274 100.607C52.3446 99.3899 53.9587 98.75 56.0703 98.75V96.75ZM49.7132 99.1929C48.0665 100.84 47.2703 102.974 47.2703 105.5H49.2703C49.2703 103.426 49.9074 101.827 51.1274 100.607L49.7132 99.1929ZM88.2879 121.65L87.8048 122.526L87.8126 122.53L88.2879 121.65ZM81.4879 115.05L80.6196 115.546L80.6241 115.554L81.4879 115.05ZM81.4879 95.95L80.6241 95.4461L80.6196 95.4539L81.4879 95.95ZM88.2879 89.4L88.7632 90.2799L88.771 90.2756L88.2879 89.4ZM107.288 89L106.845 89.8967L106.854 89.901L107.288 89ZM113.888 94.55L113.072 95.128L113.888 94.55ZM117.038 102.85V103.85H118.174L118.03 102.723L117.038 102.85ZM105.138 102.85L104.169 103.097L104.361 103.85H105.138V102.85ZM102.688 99.1L102.074 99.8894L102.084 99.8974L102.688 99.1ZM93.2379 99.85L92.4972 99.1782L93.2379 99.85ZM93.2379 111.1L92.4972 111.772L93.2379 111.1ZM102.788 111.7L102.146 110.933L102.135 110.942L102.788 111.7ZM105.138 107.6V106.6H104.315L104.157 107.408L105.138 107.6ZM117.138 107.6L118.132 107.713L118.258 106.6H117.138V107.6ZM114.038 116.2L114.861 116.767L114.865 116.762L114.038 116.2ZM107.388 121.95L106.941 121.056L106.936 121.058L107.388 121.95ZM98.2879 123C94.6632 123 91.4975 122.247 88.7632 120.77L87.8126 122.53C90.8783 124.186 94.3792 125 98.2879 125V123ZM88.771 120.774C86.0255 119.26 83.8919 117.187 82.3517 114.546L80.6241 115.554C82.3505 118.513 84.7503 120.84 87.8048 122.526L88.771 120.774ZM82.3561 114.554C80.8514 111.921 80.0879 108.912 80.0879 105.5H78.0879C78.0879 109.222 78.9244 112.579 80.6196 115.546L82.3561 114.554ZM80.0879 105.5C80.0879 102.088 80.8514 99.0794 82.3561 96.4461L80.6196 95.4539C78.9244 98.4206 78.0879 101.778 78.0879 105.5H80.0879ZM82.3517 96.4539C83.8909 93.8153 86.0219 91.7608 88.7632 90.2798L87.8126 88.5202C84.7539 90.1726 82.3516 92.4847 80.6241 95.4461L82.3517 96.4539ZM88.771 90.2756C91.5037 88.7678 94.6667 88 98.2879 88V86C94.3758 86 90.872 86.8322 87.8048 88.5244L88.771 90.2756ZM98.2879 88C101.449 88 104.296 88.6376 106.845 89.8966L107.731 88.1034C104.88 86.6957 101.727 86 98.2879 86V88ZM106.854 89.901C109.404 91.1289 111.472 92.869 113.072 95.128L114.704 93.972C112.904 91.431 110.571 89.4711 107.722 88.099L106.854 89.901ZM113.072 95.128C114.67 97.3844 115.665 99.9935 116.046 102.977L118.03 102.723C117.611 99.4398 116.506 96.5156 114.704 93.972L113.072 95.128ZM117.038 101.85H105.138V103.85H117.038V101.85ZM106.107 102.603C105.654 100.827 104.714 99.3791 103.291 98.3026L102.084 99.8974C103.129 100.688 103.822 101.739 104.169 103.097L106.107 102.603ZM103.302 98.3106C101.913 97.2303 100.276 96.7 98.4379 96.7V98.7C99.8665 98.7 101.063 99.103 102.074 99.8894L103.302 98.3106ZM98.4379 96.7C96.0266 96.7 94.0105 97.5096 92.4972 99.1782L93.9786 100.522C95.0652 99.3237 96.5159 98.7 98.4379 98.7V96.7ZM92.4972 99.1782C90.9974 100.832 90.2879 102.972 90.2879 105.5H92.2879C92.2879 103.361 92.8784 101.735 93.9786 100.522L92.4972 99.1782ZM90.2879 105.5C90.2879 107.999 90.9998 110.121 92.4972 111.772L93.9786 110.428C92.876 109.212 92.2879 107.601 92.2879 105.5H90.2879ZM92.4972 111.772C94.0105 113.44 96.0266 114.25 98.4379 114.25V112.25C96.5159 112.25 95.0652 111.626 93.9786 110.428L92.4972 111.772ZM98.4379 114.25C100.358 114.25 102.045 113.659 103.44 112.458L102.135 110.942C101.131 111.807 99.9174 112.25 98.4379 112.25V114.25ZM103.43 112.467C104.853 111.275 105.745 109.698 106.119 107.792L104.157 107.408C103.864 108.902 103.19 110.059 102.146 110.933L103.43 112.467ZM105.138 108.6H117.138V106.6H105.138V108.6ZM116.144 107.487C115.794 110.572 114.813 113.282 113.211 115.638L114.865 116.762C116.663 114.118 117.748 111.095 118.132 107.713L116.144 107.487ZM113.215 115.633C111.612 117.957 109.526 119.763 106.941 121.056L107.835 122.844C110.716 121.404 113.064 119.376 114.861 116.767L113.215 115.633ZM106.936 121.058C104.391 122.346 101.516 123 98.2879 123V125C101.794 125 104.984 124.287 107.84 122.842L106.936 121.058ZM134.405 113.3L135.296 112.845L134.41 111.109L133.516 112.842L134.405 113.3ZM129.405 123V124H130.015L130.294 123.458L129.405 123ZM116.255 123L115.384 122.509L114.543 124H116.255V123ZM126.405 105L127.276 105.491L127.55 105.005L127.28 104.516L126.405 105ZM117.005 88V87H115.309L116.13 88.4839L117.005 88ZM130.155 88L131.062 87.5782L130.793 87H130.155V88ZM134.505 97.35L133.598 97.7718L134.505 99.7207L135.412 97.7718L134.505 97.35ZM138.855 88V87H138.217L137.948 87.5782L138.855 88ZM151.855 88L152.732 88.4799L153.542 87H151.855V88ZM142.555 105L141.678 104.52L141.412 105.006L141.683 105.489L142.555 105ZM152.655 123V124H154.363L153.527 122.511L152.655 123ZM139.355 123L138.464 123.455L138.743 124H139.355V123ZM133.516 112.842L128.516 122.542L130.294 123.458L135.294 113.758L133.516 112.842ZM129.405 122H116.255V124H129.405V122ZM117.126 123.491L127.276 105.491L125.534 104.509L115.384 122.509L117.126 123.491ZM127.28 104.516L117.88 87.5161L116.13 88.4839L125.53 105.484L127.28 104.516ZM117.005 89H130.155V87H117.005V89ZM129.248 88.4218L133.598 97.7718L135.412 96.9282L131.062 87.5782L129.248 88.4218ZM135.412 97.7718L139.762 88.4218L137.948 87.5782L133.598 96.9282L135.412 97.7718ZM138.855 89H151.855V87H138.855V89ZM150.978 87.5201L141.678 104.52L143.432 105.48L152.732 88.4799L150.978 87.5201ZM141.683 105.489L151.783 123.489L153.527 122.511L143.427 104.511L141.683 105.489ZM152.655 122H139.355V124H152.655V122ZM140.246 122.545L135.296 112.845L133.514 113.755L138.464 123.455L140.246 122.545ZM161.144 121.65L160.681 122.536L160.685 122.538L161.144 121.65ZM154.194 95.9L153.33 95.3961L154.194 95.9ZM161.144 89.35L160.685 88.4615L160.681 88.4636L161.144 89.35ZM182.294 89.35L181.831 90.2364L181.835 90.2385L182.294 89.35ZM189.294 95.9L188.43 96.4039L189.294 95.9ZM189.294 115.1L188.43 114.596V114.596L189.294 115.1ZM182.294 121.65L181.835 120.761L181.831 120.764L182.294 121.65ZM166.094 111.1L165.387 111.807L166.094 111.1ZM177.394 111.1L178.101 111.807H178.101L177.394 111.1ZM177.394 99.9L178.101 99.1929L177.394 99.9ZM166.094 99.9L165.387 99.1929L166.094 99.9ZM171.744 123C167.842 123 164.471 122.243 161.603 120.762L160.685 122.538C163.884 124.191 167.58 125 171.744 125V123ZM161.607 120.764C158.766 119.28 156.592 117.226 155.058 114.596L153.33 115.604C155.063 118.574 157.522 120.887 160.681 122.536L161.607 120.764ZM155.058 114.596C153.523 111.966 152.744 108.943 152.744 105.5H150.744C150.744 109.257 151.598 112.634 153.33 115.604L155.058 114.596ZM152.744 105.5C152.744 102.057 153.523 99.0345 155.058 96.4039L153.33 95.3961C151.598 98.3655 150.744 101.743 150.744 105.5H152.744ZM155.058 96.4039C156.592 93.774 158.766 91.7199 161.607 90.2364L160.681 88.4636C157.522 90.1134 155.063 92.426 153.33 95.3961L155.058 96.4039ZM161.603 90.2385C164.471 88.7573 167.842 88 171.744 88V86C167.58 86 163.884 86.8094 160.685 88.4615L161.603 90.2385ZM171.744 88C175.647 88 178.999 88.7574 181.831 90.2364L182.757 88.4636C179.589 86.8093 175.908 86 171.744 86V88ZM181.835 90.2385C184.709 91.7229 186.898 93.7768 188.43 96.4039L190.158 95.3961C188.424 92.4232 185.946 90.1105 182.753 88.4615L181.835 90.2385ZM188.43 96.4039C189.965 99.0345 190.744 102.057 190.744 105.5H192.744C192.744 101.743 191.89 98.3655 190.158 95.3961L188.43 96.4039ZM190.744 105.5C190.744 108.943 189.965 111.966 188.43 114.596L190.158 115.604C191.89 112.634 192.744 109.257 192.744 105.5H190.744ZM188.43 114.596C186.898 117.223 184.709 119.277 181.835 120.762L182.753 122.538C185.946 120.89 188.424 118.577 190.158 115.604L188.43 114.596ZM181.831 120.764C178.999 122.243 175.647 123 171.744 123V125C175.908 125 179.589 124.191 182.757 122.536L181.831 120.764ZM162.944 105.5C162.944 108.026 163.74 110.16 165.387 111.807L166.801 110.393C165.581 109.173 164.944 107.574 164.944 105.5H162.944ZM165.387 111.807C167.037 113.457 169.189 114.25 171.744 114.25V112.25C169.633 112.25 168.018 111.61 166.801 110.393L165.387 111.807ZM171.744 114.25C174.299 114.25 176.452 113.457 178.101 111.807L176.687 110.393C175.47 111.61 173.856 112.25 171.744 112.25V114.25ZM178.101 111.807C179.748 110.16 180.544 108.026 180.544 105.5H178.544C178.544 107.574 177.907 109.173 176.687 110.393L178.101 111.807ZM180.544 105.5C180.544 102.974 179.748 100.84 178.101 99.1929L176.687 100.607C177.907 101.827 178.544 103.426 178.544 105.5H180.544ZM178.101 99.1929C176.452 97.5434 174.299 96.75 171.744 96.75V98.75C173.856 98.75 175.47 99.3899 176.687 100.607L178.101 99.1929ZM171.744 96.75C169.189 96.75 167.037 97.5434 165.387 99.1929L166.801 100.607C168.018 99.3899 169.633 98.75 171.744 98.75V96.75ZM165.387 99.1929C163.74 100.84 162.944 102.974 162.944 105.5H164.944C164.944 103.426 165.581 101.827 166.801 100.607L165.387 99.1929ZM223.564 110.4L224.434 109.906L224.147 109.4H223.564V110.4ZM223.014 110.4V109.4H222.014V110.4H223.014ZM223.014 123V124H224.014V123H223.014ZM211.314 123H210.314V124H211.314V123ZM211.314 110.4H212.314V109.4H211.314V110.4ZM210.764 110.4V109.4H210.182L209.895 109.906L210.764 110.4ZM203.614 123V124H204.197L204.484 123.494L203.614 123ZM190.564 123L189.704 122.491L188.811 124H190.564V123ZM201.064 105.25L201.925 105.759L202.22 105.26L201.934 104.756L201.064 105.25ZM191.264 88V87H189.546L190.395 88.494L191.264 88ZM204.064 88L204.947 87.5301L204.665 87H204.064V88ZM210.664 100.4L209.782 100.87L210.064 101.4H210.664V100.4ZM211.314 100.4V101.4H212.314V100.4H211.314ZM211.314 88V87H210.314V88H211.314ZM223.014 88H224.014V87H223.014V88ZM223.014 100.4H222.014V101.4H223.014V100.4ZM223.664 100.4V101.4H224.265L224.547 100.87L223.664 100.4ZM230.264 88V87H229.664L229.382 87.5301L230.264 88ZM243.064 88L243.934 88.494L244.783 87H243.064V88ZM233.264 105.25L232.395 104.756L232.109 105.26L232.404 105.759L233.264 105.25ZM243.764 123V124H245.518L244.625 122.491L243.764 123ZM230.714 123L229.845 123.494L230.132 124H230.714V123ZM223.564 109.4H223.014V111.4H223.564V109.4ZM222.014 110.4V123H224.014V110.4H222.014ZM223.014 122H211.314V124H223.014V122ZM212.314 123V110.4H210.314V123H212.314ZM211.314 109.4H210.764V111.4H211.314V109.4ZM209.895 109.906L202.745 122.506L204.484 123.494L211.634 110.894L209.895 109.906ZM203.614 122H190.564V124H203.614V122ZM191.425 123.509L201.925 105.759L200.204 104.741L189.704 122.491L191.425 123.509ZM201.934 104.756L192.134 87.506L190.395 88.494L200.195 105.744L201.934 104.756ZM191.264 89H204.064V87H191.264V89ZM203.182 88.4698L209.782 100.87L211.547 99.9301L204.947 87.5301L203.182 88.4698ZM210.664 101.4H211.314V99.4H210.664V101.4ZM212.314 100.4V88H210.314V100.4H212.314ZM211.314 89H223.014V87H211.314V89ZM222.014 88V100.4H224.014V88H222.014ZM223.014 101.4H223.664V99.4H223.014V101.4ZM224.547 100.87L231.147 88.4698L229.382 87.5301L222.782 99.9301L224.547 100.87ZM230.264 89H243.064V87H230.264V89ZM242.195 87.506L232.395 104.756L234.134 105.744L243.934 88.494L242.195 87.506ZM232.404 105.759L242.904 123.509L244.625 122.491L234.125 104.741L232.404 105.759ZM243.764 122H230.714V124H243.764V122ZM231.584 122.506L224.434 109.906L222.695 110.894L229.845 123.494L231.584 122.506ZM243.462 112.75V111.75H242.462V112.75H243.462ZM247.162 112.75V113.75H247.674L247.973 113.334L247.162 112.75ZM248.562 109.15L247.587 108.927L247.585 108.934L247.584 108.942L248.562 109.15ZM249.512 102.05L248.516 101.955L248.515 101.965L249.512 102.05ZM250.562 88V87H249.624L249.564 87.936L250.562 88ZM278.762 88H279.762V87H278.762V88ZM278.762 112.75H277.762V113.75H278.762V112.75ZM282.662 112.75H283.662V111.75H282.662V112.75ZM282.662 129.2V130.2H283.662V129.2H282.662ZM271.362 129.2H270.362V130.2H271.362V129.2ZM271.362 123H272.362V122H271.362V123ZM254.762 123V122H253.762V123H254.762ZM254.762 129.2V130.2H255.762V129.2H254.762ZM243.462 129.2H242.462V130.2H243.462V129.2ZM266.962 112.75V113.75H267.962V112.75H266.962ZM266.962 98.05H267.962V97.05H266.962V98.05ZM261.562 98.05V97.05H260.603L260.563 98.008L261.562 98.05ZM259.362 112.75L258.446 112.349L257.833 113.75H259.362V112.75ZM243.462 113.75H247.162V111.75H243.462V113.75ZM247.973 113.334C248.687 112.343 249.192 110.992 249.54 109.358L247.584 108.942C247.265 110.441 246.837 111.49 246.35 112.166L247.973 113.334ZM249.536 109.373C249.919 107.704 250.24 105.281 250.508 102.135L248.515 101.965C248.25 105.086 247.938 107.396 247.587 108.927L249.536 109.373ZM250.507 102.145C250.809 98.9958 251.16 94.2998 251.56 88.064L249.564 87.936C249.164 94.1669 248.815 98.8375 248.516 101.955L250.507 102.145ZM250.562 89H278.762V87H250.562V89ZM277.762 88V112.75H279.762V88H277.762ZM278.762 113.75H282.662V111.75H278.762V113.75ZM281.662 112.75V129.2H283.662V112.75H281.662ZM282.662 128.2H271.362V130.2H282.662V128.2ZM272.362 129.2V123H270.362V129.2H272.362ZM271.362 122H254.762V124H271.362V122ZM253.762 123V129.2H255.762V123H253.762ZM254.762 128.2H243.462V130.2H254.762V128.2ZM244.462 129.2V112.75H242.462V129.2H244.462ZM267.962 112.75V98.05H265.962V112.75H267.962ZM266.962 97.05H261.562V99.05H266.962V97.05ZM260.563 98.008C260.262 105.146 259.529 109.873 258.446 112.349L260.278 113.151C261.528 110.294 262.261 105.22 262.561 98.092L260.563 98.008ZM259.362 113.75H266.962V111.75H259.362V113.75ZM286.295 88V87H285.295V88H286.295ZM310.245 88H311.245V87H310.245V88ZM310.245 97.3V98.3H311.245V97.3H310.245ZM298.095 97.3V96.3H297.095V97.3H298.095ZM298.095 101.15H297.095V102.15H298.095V101.15ZM308.945 101.15H309.945V100.15H308.945V101.15ZM308.945 109.65V110.65H309.945V109.65H308.945ZM298.095 109.65V108.65H297.095V109.65H298.095ZM298.095 113.7H297.095V114.7H298.095V113.7ZM310.495 113.7H311.495V112.7H310.495V113.7ZM310.495 123V124H311.495V123H310.495ZM286.295 123H285.295V124H286.295V123ZM286.295 89H310.245V87H286.295V89ZM309.245 88V97.3H311.245V88H309.245ZM310.245 96.3H298.095V98.3H310.245V96.3ZM297.095 97.3V101.15H299.095V97.3H297.095ZM298.095 102.15H308.945V100.15H298.095V102.15ZM307.945 101.15V109.65H309.945V101.15H307.945ZM308.945 108.65H298.095V110.65H308.945V108.65ZM297.095 109.65V113.7H299.095V109.65H297.095ZM298.095 114.7H310.495V112.7H298.095V114.7ZM309.495 113.7V123H311.495V113.7H309.495ZM310.495 122H286.295V124H310.495V122ZM287.295 123V88H285.295V123H287.295ZM335.641 110.6H336.641V109.6H335.641V110.6ZM327.441 110.6V109.6H326.441V110.6H327.441ZM327.441 123V124H328.441V123H327.441ZM315.641 123H314.641V124H315.641V123ZM315.641 88V87H314.641V88H315.641ZM327.441 88H328.441V87H327.441V88ZM327.441 99.85H326.441V100.85H327.441V99.85ZM335.641 99.85V100.85H336.641V99.85H335.641ZM335.641 88V87H334.641V88H335.641ZM347.441 88H348.441V87H347.441V88ZM347.441 123V124H348.441V123H347.441ZM335.641 123H334.641V124H335.641V123ZM335.641 109.6H327.441V111.6H335.641V109.6ZM326.441 110.6V123H328.441V110.6H326.441ZM327.441 122H315.641V124H327.441V122ZM316.641 123V88H314.641V123H316.641ZM315.641 89H327.441V87H315.641V89ZM326.441 88V99.85H328.441V88H326.441ZM327.441 100.85H335.641V98.85H327.441V100.85ZM336.641 99.85V88H334.641V99.85H336.641ZM335.641 89H347.441V87H335.641V89ZM346.441 88V123H348.441V88H346.441ZM347.441 122H335.641V124H347.441V122ZM336.641 123V110.6H334.641V123H336.641ZM352.945 88V87H351.945V88H352.945ZM364.545 88H365.545V87H364.545V88ZM364.545 104.3H363.545V107.857L365.399 104.821L364.545 104.3ZM374.495 88V87H373.934L373.642 87.479L374.495 88ZM385.895 88H386.895V87H385.895V88ZM385.895 123V124H386.895V123H385.895ZM374.295 123H373.295V124H374.295V123ZM374.295 106.7H375.295V103.143L373.442 106.179L374.295 106.7ZM364.345 123V124H364.906L365.199 123.521L364.345 123ZM352.945 123H351.945V124H352.945V123ZM352.945 89H364.545V87H352.945V89ZM363.545 88V104.3H365.545V88H363.545ZM365.399 104.821L375.349 88.521L373.642 87.479L363.692 103.779L365.399 104.821ZM374.495 89H385.895V87H374.495V89ZM384.895 88V123H386.895V88H384.895ZM385.895 122H374.295V124H385.895V122ZM375.295 123V106.7H373.295V123H375.295ZM373.442 106.179L363.492 122.479L365.199 123.521L375.149 107.221L373.442 106.179ZM364.345 122H352.945V124H364.345V122ZM353.945 123V88H351.945V123H353.945ZM391.373 88V87H390.373V88H391.373ZM415.323 88H416.323V87H415.323V88ZM415.323 97.3V98.3H416.323V97.3H415.323ZM403.173 97.3V96.3H402.173V97.3H403.173ZM403.173 101.15H402.173V102.15H403.173V101.15ZM414.023 101.15H415.023V100.15H414.023V101.15ZM414.023 109.65V110.65H415.023V109.65H414.023ZM403.173 109.65V108.65H402.173V109.65H403.173ZM403.173 113.7H402.173V114.7H403.173V113.7ZM415.573 113.7H416.573V112.7H415.573V113.7ZM415.573 123V124H416.573V123H415.573ZM391.373 123H390.373V124H391.373V123ZM391.373 89H415.323V87H391.373V89ZM414.323 88V97.3H416.323V88H414.323ZM415.323 96.3H403.173V98.3H415.323V96.3ZM402.173 97.3V101.15H404.173V97.3H402.173ZM403.173 102.15H414.023V100.15H403.173V102.15ZM413.023 101.15V109.65H415.023V101.15H413.023ZM414.023 108.65H403.173V110.65H414.023V108.65ZM402.173 109.65V113.7H404.173V109.65H402.173ZM403.173 114.7H415.573V112.7H403.173V114.7ZM414.573 113.7V123H416.573V113.7H414.573ZM415.573 122H391.373V124H415.573V122ZM392.373 123V88H390.373V123H392.373Z" fill="white"/>
</svg>
